<svg width="32" height="30" viewBox="0 0 32 30" fill="none" xmlns="http://www.w3.org/2000/svg">
<path d="M28.5027 10.1142C29.2195 10.0861 30.3791 10.0335 31.0528 10.2718C31.171 10.3131 31.2404 10.3581 31.2948 10.4707C31.2629 11.2964 29.4822 13.291 28.8705 13.8558C26.9546 15.6291 24.6897 16.5166 22.0796 16.4191C21.1132 16.404 20.0606 16.1695 19.1768 15.7811C19.3475 15.7829 19.5201 15.7848 19.6909 15.7754C20.5372 15.7266 21.4078 15.4245 22.1772 15.0868C24.1024 14.2405 25.7124 12.9589 27.1122 11.3977C27.4275 11.0468 27.7014 10.6621 28.0129 10.3075C28.1762 10.1217 28.2719 10.1292 28.5064 10.1142H28.5027Z" fill="white"/>
<path d="M4.76027 1.49383C4.87661 1.48633 4.99858 1.49008 5.11304 1.50885C5.1487 1.51448 5.18247 1.52386 5.21812 1.53324C5.2519 1.54262 5.28568 1.55388 5.31945 1.56702C5.35323 1.58015 5.38513 1.59516 5.41703 1.61017C5.44893 1.62706 5.48083 1.64395 5.51085 1.66271C5.54087 1.68148 5.5709 1.70212 5.59904 1.72464C5.62719 1.74715 5.65346 1.76967 5.67973 1.79407C5.706 1.81846 5.73039 1.84473 5.75291 1.871C5.77543 1.89727 5.79795 1.92542 5.81859 1.95544C5.99685 2.20876 6.07754 2.5484 6.01749 2.85426C5.94618 3.21078 5.75291 3.37778 5.46769 3.56918C5.49771 4.82077 5.38513 6.01982 5.10554 7.23951C5.86174 7.23951 6.5185 7.39337 7.22592 7.64482C7.59933 7.00495 8.03467 6.37071 8.51879 5.80965C8.79463 5.49066 9.11174 5.19606 9.37069 4.8658C9.59774 4.57495 9.66342 4.18653 9.98617 3.97074C10.2864 3.77184 10.7124 3.66488 11.067 3.7512C11.3034 3.80749 11.5192 3.94822 11.6449 4.16026C11.7707 4.3723 11.78 4.61811 11.7144 4.85079C11.6299 5.15478 11.4329 5.43061 11.1552 5.58261C10.7987 5.77776 10.3821 5.74961 10.0068 5.63139L9.95427 5.6145C9.15303 6.35007 8.47938 7.11941 7.87329 8.02198C8.62012 8.5699 9.28062 9.22666 9.62214 10.1048C9.94489 10.9361 9.8642 11.7392 9.51518 12.5442C8.70831 14.0416 7.06079 15.2538 5.4752 15.8149C4.25926 16.2446 2.77875 16.299 1.60034 15.7229C0.913563 15.387 0.418182 14.8522 0.174244 14.1242C-0.221686 12.9514 0.110445 11.5591 0.645231 10.4839C1.39206 8.97897 2.57422 7.98633 4.15418 7.44967C4.64769 6.26188 4.77716 4.8658 4.88975 3.59545C4.53322 3.44909 4.25363 3.2408 4.10727 2.86927C4.00031 2.59718 3.99093 2.27631 4.1204 2.00986C4.25738 1.72839 4.48256 1.59516 4.7659 1.49008L4.76027 1.49383Z" fill="white"/>
<path d="M30.1172 0.0133253C30.2335 0.000190228 30.3686 -0.0166978 30.4793 0.0320898C30.5694 0.0733715 30.5957 0.129665 30.6144 0.221611C30.6951 0.608158 30.545 1.18235 30.4793 1.57453C30.0346 4.25221 29.0119 6.93928 27.4658 9.176C25.5743 11.91 22.7484 14.218 19.4083 14.811C17.7908 15.0981 17.6782 14.4995 16.4773 13.6569C16.9314 13.1991 22.4913 6.97305 22.5438 6.84733C22.5551 6.82106 22.5476 6.78916 22.5476 6.75914C21.8908 7.25827 21.2697 7.85498 20.6374 8.39165C18.8191 9.93033 17.0083 11.5122 15.1281 12.972C14.7303 12.8032 14.3306 12.6718 13.9084 12.5761C14.2012 11.9832 14.522 11.4071 14.8692 10.8442C15.2163 10.2812 15.5897 9.73706 15.9875 9.20978C19.1906 4.9221 24.7074 0.790173 30.1172 0.0133253Z" fill="white"/>
<path d="M3.93759 10.4032C4.07833 10.5026 4.18341 10.6415 4.24533 10.8104C4.33915 11.0675 4.32789 11.3621 4.25846 11.636V11.6379V11.6398V11.6416V11.6435V11.6454V11.6473V11.6491L4.25659 11.6642V11.666V11.6679V11.6698V11.6717V11.6735V11.6754V11.6773V11.6792V11.681V11.6848V11.6867V11.6886V11.6904V11.6923V11.6942V11.6961V11.6979V11.6998V11.7017V11.7036V11.7054L4.25096 11.7317V11.7336V11.7355C4.08771 12.4466 3.51539 12.9195 2.98248 12.7938L2.96184 12.7881H2.95809L2.93745 12.7825H2.93557H2.9337L2.91493 12.7769H2.91305H2.91118L2.89241 12.7694H2.89054H2.88866C2.88303 12.7675 2.8774 12.7656 2.87177 12.7619H2.8699L2.86614 12.76L2.85488 12.7544L2.85113 12.7525L2.84363 12.7487L2.83987 12.7469L2.83612 12.745L2.83237 12.7431L2.82861 12.7412L2.82111 12.7375L2.81736 12.7356L2.8136 12.7337L2.80985 12.7319L2.8061 12.73L2.79859 12.7262L2.79484 12.7243L2.78733 12.7206L2.78358 12.7187L2.7742 12.7131L2.77044 12.7112L2.76669 12.7093L2.76294 12.7075L2.75168 12.7018L2.74793 12.7C2.55465 12.6005 2.41392 12.4373 2.34074 12.229C2.28069 12.0638 2.26568 11.8837 2.27882 11.7036V11.6979V11.6923V11.6792V11.6735V11.6679V11.6623V11.6435V11.6379V11.6323V11.6304V11.6285V11.6191V11.6135V11.6004V11.5947V11.5929V11.5872L2.28069 11.5703V11.5647V11.561V11.5572L2.28257 11.5384V11.5328V11.5291V11.5272L2.28445 11.5028V11.499V11.4972L2.2882 11.4709V11.4671V11.4653V11.4634L2.29195 11.439V11.4334V11.4315L2.29383 11.4259L2.29758 11.4015V11.3996V11.3977L2.30321 11.3658L2.31072 11.3339L2.31822 11.302C2.4796 10.5908 3.05379 10.118 3.5867 10.2437L3.60734 10.2493C3.61484 10.2512 3.62235 10.2531 3.62798 10.255C3.63549 10.2568 3.64111 10.2587 3.64862 10.2625L3.66926 10.27L3.6899 10.2775L3.69365 10.2793L3.71054 10.2869L3.71617 10.2887L3.73306 10.2962H3.73494L3.73869 10.2981L3.75745 10.3075H3.75933L3.76121 10.3094L3.77434 10.3169L3.77997 10.3206L3.78372 10.3225L3.79686 10.3319L3.80624 10.3375L3.81938 10.3469L3.82688 10.3525H3.82876L3.83439 10.3563L3.84002 10.36L3.8494 10.3675L3.85503 10.3713L3.86066 10.375L3.87004 10.3825L3.87567 10.3863L3.88505 10.3938L3.89068 10.3976L3.89631 10.4013L3.91132 10.4144L3.91695 10.4182L3.93196 10.4313L3.93759 10.4032Z" fill="#053D27"/>
<path fill-rule="evenodd" clip-rule="evenodd" d="M10.9902 27.0866C10.9902 27.0866 12.3882 28.0399 13.5816 28.0605C14.775 28.0812 19.8245 25.1183 19.8245 25.1183L20.2167 20.8531C20.2167 20.8531 19.2015 17.8827 18.83 17.5018C18.4604 17.1209 18.359 17.6388 17.8711 18.1379L17.616 15.9744C17.616 15.9744 15.2685 13.9253 14.0957 13.9515C12.923 13.9778 8.13053 18.971 8.13053 18.971L6.53931 21.8176C6.53931 21.8176 6.8508 23.6359 8.13241 24.88C9.12692 25.8463 12.0392 24.499 13.2964 23.8479C12.1761 25.3622 11.3336 26.55 11.3336 26.55L10.9884 27.0848L10.9902 27.0866Z" fill="#053D27"/>
<path d="M11.7619 13.5481C12.7602 13.5031 13.7134 13.7339 14.6535 14.0397C14.6179 14.1767 14.5784 14.3137 14.5334 14.4488C13.522 17.5712 11.3603 19.9243 8.45937 21.401C7.86829 21.6938 7.25844 21.9208 6.63922 22.1441C6.21326 20.7818 6.08754 19.5546 6.38214 18.151C8.7277 17.2991 10.4784 15.6535 11.7619 13.5481ZM20.0258 20.2545C20.174 20.3915 20.204 20.7931 20.2434 20.9957C20.5268 22.4274 20.4686 23.7503 20.2735 25.1839C20.1721 25.9233 20.0464 26.6663 20.0614 27.415C20.0783 28.3082 20.3016 29.1695 20.615 30.0008C19.02 28.8993 17.6089 28.6535 15.7437 28.4489C14.8974 28.3889 14.0737 28.1431 13.2293 28.0568C14.601 27.6214 15.7437 26.9891 16.8433 26.0527C18.6372 24.5234 19.84 22.6414 20.0258 20.2545ZM16.7307 15.2763C17.5001 15.7736 18.6522 16.8657 18.9356 17.7607C19.2076 18.6201 18.2938 20.915 17.866 21.705C16.5112 24.2138 13.8485 26.3267 11.1314 27.1448C10.8987 27.0547 10.6792 26.9459 10.4559 26.8333C10.3358 26.7639 10.2157 26.6907 10.0994 26.6157C9.98116 26.5406 9.8667 26.4618 9.75224 26.3811C9.63965 26.3004 9.52706 26.216 9.41823 26.1297C9.3094 26.0433 9.20056 25.9533 9.09548 25.8632C8.9904 25.7713 8.8872 25.6774 8.78587 25.5817C8.68454 25.486 8.58697 25.3866 8.49127 25.2853C8.39557 25.1839 8.30175 25.0807 8.2098 24.9757C8.11785 24.8706 8.02966 24.7617 7.94334 24.6529C9.57397 24.3733 11.1821 23.6134 12.49 22.6113C14.8524 20.8006 16.3423 18.2317 16.7289 15.2819L16.7307 15.2763Z" fill="white"/>
</svg>
