<svg width="78" height="78" viewBox="0 0 78 78" fill="none" xmlns="http://www.w3.org/2000/svg">
<g filter="url(#filter0_d_7415_23007)">
<rect x="5.8999" y="3.90039" width="64" height="64" rx="8" fill="white"/>
<rect x="6.3999" y="4.40039" width="63" height="63" rx="7.5" stroke="#ECECEC"/>
<rect x="13.8999" y="11.9004" width="48" height="48" rx="24" fill="#DBF0DF"/>
<rect x="13.8999" y="11.9004" width="48" height="48" rx="24" stroke="#EEFDF1" stroke-width="8"/>
<g clip-path="url(#clip0_7415_23007)">
<path d="M47.3024 48.9001H30.961C29.8833 48.9001 29.0098 48.0265 29.0098 46.9489V32.5587C29.0098 31.481 29.8833 30.6074 30.961 30.6074H45.3512C46.4289 30.6074 47.3024 31.481 47.3024 32.5587V48.9001Z" fill="#053D27"/>
<g opacity="0.2">
<path opacity="0.4" d="M45.3511 30.6074H42.912C43.9897 30.6074 44.8633 31.481 44.8633 32.5587V35.4119C44.8633 35.9698 44.5464 36.4798 44.0452 36.7248C41.5712 37.9347 39.8633 40.4778 39.8633 43.4123C39.8633 45.5828 40.7978 47.539 42.2854 48.9001H47.3023V32.5587C47.3023 31.481 46.4287 30.6074 45.3511 30.6074Z" fill="#E8EDFB"/>
</g>
<path d="M31.7632 25.2933V30.6077H34.3241V25.2933C34.3241 23.177 36.0397 21.4614 38.156 21.4614C40.2723 21.4614 41.9879 23.177 41.9879 25.2933V30.6077H44.5488V25.2933C44.5489 21.7626 41.6867 18.9004 38.1561 18.9004C34.6254 18.9004 31.7632 21.7626 31.7632 25.2933Z" fill="white"/>
<g opacity="0.3">
<path d="M31.7632 28.6562H34.3241V30.6075H31.7632V28.6562Z" fill="#A5A5A5"/>
</g>
<g opacity="0.3">
<path d="M41.9878 28.6562H44.5487V30.6075H41.9878V28.6562Z" fill="#A5A5A5"/>
</g>
<path d="M47.3023 48.9005C50.3331 48.9005 52.7901 46.4435 52.7901 43.4126C52.7901 40.3818 50.3331 37.9248 47.3023 37.9248C44.2714 37.9248 41.8145 40.3818 41.8145 43.4126C41.8145 46.4435 44.2714 48.9005 47.3023 48.9005Z" fill="#FF7272"/>
<path opacity="0.2" d="M50.1698 38.7334C50.6822 39.5679 50.978 40.5499 50.978 41.601C50.978 44.6318 48.521 47.0888 45.4901 47.0888C44.439 47.0888 43.4571 46.7931 42.6226 46.2806C43.5878 47.8524 45.3225 48.9008 47.3022 48.9008C50.333 48.9008 52.79 46.4439 52.79 43.413C52.79 41.4333 51.7416 39.6986 50.1698 38.7334Z" fill="#FF3636"/>
<path d="M40.1075 37.6514C40.1075 36.5738 39.234 35.7002 38.1563 35.7002C37.0787 35.7002 36.2051 36.5738 36.2051 37.6514C36.2051 38.3735 36.5977 39.0035 37.1807 39.341V42.833C37.1807 43.3718 37.6175 43.8086 38.1563 43.8086C38.6951 43.8086 39.1318 43.3718 39.1318 42.833V39.341C39.715 39.0035 40.1075 38.3735 40.1075 37.6514Z" fill="white"/>
<path d="M47.3026 45.5791C47.0598 45.5791 46.8631 45.3824 46.8631 45.1397V43.7164C46.8631 43.4737 47.0598 43.277 47.3026 43.277C47.719 43.277 48.1066 43.1104 48.3937 42.8079C48.6807 42.5057 48.8269 42.1092 48.8052 41.6916C48.7646 40.909 48.1183 40.2837 47.3338 40.2678C46.5735 40.2533 45.9174 40.8088 45.8123 41.5618C45.8027 41.6307 45.7979 41.7016 45.7979 41.7722C45.7979 42.0149 45.6012 42.2117 45.3584 42.2117C45.1156 42.2117 44.9189 42.0149 44.9189 41.7722C44.9189 41.6611 44.9267 41.5494 44.9419 41.4404C45.1086 40.2466 46.1444 39.366 47.3516 39.3891C48.5945 39.4141 49.6186 40.4055 49.683 41.6461C49.7172 42.3067 49.4857 42.9343 49.0311 43.4131C48.6792 43.7838 48.2321 44.0255 47.7421 44.116V45.1397C47.7421 45.3824 47.5453 45.5791 47.3026 45.5791Z" fill="white"/>
<path d="M47.3022 47.4355C47.5449 47.4355 47.7417 47.2388 47.7417 46.9961C47.7417 46.7534 47.5449 46.5566 47.3022 46.5566C47.0595 46.5566 46.8628 46.7534 46.8628 46.9961C46.8628 47.2388 47.0595 47.4355 47.3022 47.4355Z" fill="white"/>
</g>
</g>
<defs>
<filter id="filter0_d_7415_23007" x="-9.77516e-05" y="0.00039053" width="77.8" height="77.8" filterUnits="userSpaceOnUse" color-interpolation-filters="sRGB">
<feFlood flood-opacity="0" result="BackgroundImageFix"/>
<feColorMatrix in="SourceAlpha" type="matrix" values="0 0 0 0 0 0 0 0 0 0 0 0 0 0 0 0 0 0 127 0" result="hardAlpha"/>
<feOffset dx="1" dy="3"/>
<feGaussianBlur stdDeviation="3.45"/>
<feComposite in2="hardAlpha" operator="out"/>
<feColorMatrix type="matrix" values="0 0 0 0 0 0 0 0 0 0 0 0 0 0 0 0 0 0 0.1 0"/>
<feBlend mode="normal" in2="BackgroundImageFix" result="effect1_dropShadow_7415_23007"/>
<feBlend mode="normal" in="SourceGraphic" in2="effect1_dropShadow_7415_23007" result="shape"/>
</filter>
<clipPath id="clip0_7415_23007">
<rect width="30" height="30" fill="white" transform="translate(25.8999 18.9004)"/>
</clipPath>
</defs>
</svg>
