<svg width="178" height="57" viewBox="0 0 178 57" fill="none" xmlns="http://www.w3.org/2000/svg">
<g filter="url(#filter0_ddd_3077_43196)">
<rect x="4.25195" y="2.81076" width="46.1204" height="46.1255" rx="5.76564" fill="white"/>
<rect x="4.86954" y="3.42835" width="44.8853" height="44.8903" rx="5.14806" stroke="#ECECEC" stroke-width="1.23517"/>
<path d="M41.5205 20.2396C42.3128 20.2072 43.5945 20.1466 44.3391 20.4214C44.4697 20.469 44.5465 20.5209 44.6066 20.6507C44.5713 21.6027 42.6031 23.9028 41.927 24.554C39.8095 26.5987 37.3062 27.6222 34.4213 27.5097C33.3532 27.4924 32.1897 27.2219 31.2129 26.774C31.4016 26.7762 31.5924 26.7783 31.7812 26.7675C32.7165 26.7113 33.6788 26.3629 34.5292 25.9734C36.6571 24.9976 38.4365 23.5198 39.9837 21.7196C40.3321 21.315 40.6349 20.8714 40.9792 20.4625C41.1597 20.2483 41.2654 20.2569 41.5247 20.2396H41.5205Z" fill="#FAB403"/>
<path d="M15.2787 10.2996C15.4073 10.2909 15.5421 10.2952 15.6686 10.3169C15.708 10.3234 15.7453 10.3342 15.7847 10.345C15.8221 10.3558 15.8594 10.3688 15.8967 10.3839C15.9341 10.3991 15.9693 10.4164 16.0046 10.4337C16.0398 10.4532 16.0751 10.4727 16.1083 10.4943C16.1415 10.5159 16.1746 10.5397 16.2057 10.5657C16.2369 10.5917 16.2659 10.6176 16.2949 10.6457C16.324 10.6739 16.3509 10.7042 16.3758 10.7345C16.4007 10.7648 16.4256 10.7972 16.4484 10.8318C16.6454 11.1239 16.7346 11.5156 16.6682 11.8682C16.5894 12.2793 16.3758 12.4719 16.0606 12.6926C16.0938 14.1358 15.9693 15.5184 15.6603 16.9248C16.4961 16.9248 17.222 17.1023 18.0039 17.3922C18.4166 16.6544 18.8978 15.923 19.4329 15.2761C19.7377 14.9083 20.0882 14.5686 20.3744 14.1877C20.6254 13.8524 20.698 13.4045 21.0547 13.1557C21.3865 12.9263 21.8573 12.803 22.2493 12.9025C22.5106 12.9674 22.7491 13.1297 22.8881 13.3742C23.027 13.6187 23.0374 13.9021 22.9648 14.1704C22.8715 14.521 22.6537 14.839 22.3468 15.0143C21.9527 15.2393 21.4923 15.2068 21.0775 15.0705L21.0194 15.0511C20.1339 15.8992 19.3893 16.7864 18.7194 17.8271C19.5448 18.4589 20.2749 19.2162 20.6523 20.2288C21.0091 21.1873 20.9199 22.1134 20.5341 23.0416C19.6423 24.7683 17.8214 26.166 16.0689 26.813C14.7249 27.3085 13.0886 27.3712 11.7861 26.707C11.027 26.3197 10.4795 25.703 10.2099 24.8635C9.77229 23.5112 10.1394 21.9057 10.7305 20.6659C11.5559 18.9306 12.8625 17.786 14.6088 17.1672C15.1542 15.7975 15.2973 14.1877 15.4218 12.7229C15.0277 12.5541 14.7187 12.314 14.5569 11.8856C14.4387 11.5718 14.4284 11.2018 14.5715 10.8946C14.7229 10.57 14.9717 10.4164 15.2849 10.2952L15.2787 10.2996Z" fill="#FAB403"/>
<path d="M43.3046 8.59238C43.4332 8.57723 43.5825 8.55776 43.7049 8.61402C43.8044 8.66162 43.8335 8.72653 43.8542 8.83255C43.9434 9.27828 43.7775 9.94037 43.7049 10.3926C43.2134 13.4802 42.0831 16.5786 40.3741 19.1578C38.2835 22.3103 35.1601 24.9717 31.4685 25.6554C29.6807 25.9864 29.5563 25.2962 28.2289 24.3247C28.7308 23.7968 34.876 16.6176 34.9341 16.4726C34.9465 16.4423 34.9382 16.4055 34.9382 16.3709C34.2123 16.9465 33.5258 17.6345 32.8269 18.2533C30.8172 20.0276 28.8159 21.8516 26.7377 23.535C26.298 23.3402 25.8563 23.1888 25.3896 23.0784C25.7132 22.3947 26.0678 21.7304 26.4515 21.0813C26.8352 20.4322 27.2479 19.8047 27.6876 19.1967C31.2279 14.2526 37.3254 9.48816 43.3046 8.59238Z" fill="#FAB403"/>
<path d="M14.3705 20.5728C14.526 20.6875 14.6422 20.8476 14.7106 21.0423C14.8143 21.3387 14.8019 21.6785 14.7251 21.9944V21.9965V21.9987V22.0008V22.003V22.0052V22.0073V22.0095L14.7231 22.0268V22.029V22.0311V22.0333V22.0355V22.0376V22.0398V22.042V22.0441V22.0463V22.0506V22.0528V22.0549V22.0571V22.0593V22.0614V22.0636V22.0658V22.0679V22.0701V22.0722V22.0744L14.7168 22.1047V22.1069V22.109C14.5364 22.9291 13.9038 23.4743 13.3148 23.3294L13.292 23.3229H13.2879L13.2651 23.3164H13.263H13.2609L13.2402 23.3099H13.2381H13.236L13.2153 23.3012H13.2132H13.2111C13.2049 23.2991 13.1987 23.2969 13.1925 23.2926H13.1904L13.1862 23.2904L13.1738 23.2839L13.1697 23.2818L13.1614 23.2774L13.1572 23.2753L13.1531 23.2731L13.1489 23.2709L13.1448 23.2688L13.1365 23.2645L13.1323 23.2623L13.1282 23.2601L13.124 23.258L13.1199 23.2558L13.1116 23.2515L13.1074 23.2493L13.0991 23.245L13.095 23.2428L13.0846 23.2363L13.0805 23.2342L13.0763 23.232L13.0722 23.2298L13.0597 23.2233L13.0556 23.2212C12.842 23.1065 12.6864 22.9183 12.6055 22.6781C12.5392 22.4877 12.5226 22.28 12.5371 22.0722V22.0658V22.0593V22.0441V22.0376V22.0311V22.0246V22.003V21.9965V21.99V21.9879V21.9857V21.9749V21.9684V21.9532V21.9468V21.9446V21.9381L12.5392 21.9186V21.9121V21.9078V21.9035L12.5412 21.8818V21.8753V21.871V21.8689L12.5433 21.8407V21.8364V21.8342L12.5475 21.8039V21.7996V21.7975V21.7953L12.5516 21.7672V21.7607V21.7585L12.5537 21.752L12.5578 21.7239V21.7217V21.7196L12.5641 21.6828L12.5724 21.646L12.5806 21.6092C12.759 20.7892 13.3936 20.2439 13.9827 20.3889L14.0055 20.3954C14.0138 20.3975 14.0221 20.3997 14.0283 20.4019C14.0366 20.404 14.0428 20.4062 14.0511 20.4105L14.0739 20.4192L14.0967 20.4278L14.1009 20.43L14.1195 20.4386L14.1258 20.4408L14.1444 20.4495H14.1465L14.1506 20.4516L14.1714 20.4624H14.1735L14.1755 20.4646L14.19 20.4733L14.1963 20.4776L14.2004 20.4798L14.2149 20.4906L14.2253 20.4971L14.2398 20.5079L14.2481 20.5144H14.2502L14.2564 20.5187L14.2626 20.523L14.273 20.5317L14.2792 20.536L14.2855 20.5403L14.2958 20.549L14.302 20.5533L14.3124 20.562L14.3186 20.5663L14.3249 20.5706L14.3414 20.5858L14.3477 20.5901L14.3643 20.6053L14.3705 20.5728Z" fill="white"/>
<path fill-rule="evenodd" clip-rule="evenodd" d="M22.1646 39.8104C22.1646 39.8104 23.7097 40.9095 25.0287 40.9333C26.3478 40.9571 31.9288 37.5406 31.9288 37.5406L32.3623 32.6225C32.3623 32.6225 31.2403 29.1974 30.8296 28.7582C30.4211 28.3189 30.3091 28.9161 29.7698 29.4917L29.4878 26.9969C29.4878 26.9969 26.8932 24.6341 25.597 24.6644C24.3008 24.6947 19.0038 30.4523 19.0038 30.4523L17.2451 33.7347C17.2451 33.7347 17.5894 35.8313 19.0059 37.2659C20.1051 38.3802 23.3239 36.8266 24.7135 36.0758C23.4753 37.8219 22.5441 39.1916 22.5441 39.1916L22.1625 39.8082L22.1646 39.8104Z" fill="#FAB403"/>
<path d="M23.017 24.1992C24.1203 24.1473 25.1739 24.4134 26.213 24.7661C26.1736 24.9241 26.13 25.082 26.0802 25.2378C24.9624 28.8382 22.5732 31.5515 19.3668 33.2543C18.7135 33.5919 18.0395 33.8537 17.355 34.1112C16.8843 32.5403 16.7453 31.1252 17.0709 29.5068C19.6634 28.5245 21.5984 26.6269 23.017 24.1992ZM32.1508 31.9323C32.3146 32.0903 32.3478 32.5533 32.3913 32.787C32.7045 34.4379 32.6402 35.9633 32.4245 37.6164C32.3125 38.4689 32.1736 39.3257 32.1902 40.189C32.2088 41.219 32.4556 42.2121 32.802 43.1706C31.0391 41.9005 29.4795 41.6171 27.418 41.3812C26.4826 41.312 25.5721 41.0285 24.6388 40.929C26.1549 40.427 27.418 39.6979 28.6333 38.6182C30.616 36.8547 31.9454 34.6845 32.1508 31.9323ZM28.5089 26.192C29.3592 26.7654 30.6326 28.0246 30.9458 29.0567C31.2465 30.0477 30.2365 32.6939 29.7636 33.6049C28.2662 36.4977 25.3232 38.9341 22.3201 39.8774C22.063 39.7736 21.8203 39.6481 21.5735 39.5183C21.4408 39.4382 21.308 39.3538 21.1794 39.2673C21.0488 39.1807 20.9223 39.0899 20.7958 38.9968C20.6713 38.9038 20.5469 38.8064 20.4266 38.7069C20.3063 38.6074 20.186 38.5035 20.0699 38.3996C19.9537 38.2936 19.8397 38.1854 19.7277 38.0751C19.6157 37.9647 19.5078 37.8501 19.4021 37.7332C19.2963 37.6164 19.1926 37.4974 19.091 37.3762C18.9893 37.255 18.8919 37.1295 18.7965 37.004C20.5987 36.6817 22.3761 35.8053 23.8217 34.6499C26.4328 32.5619 28.0796 29.5998 28.5068 26.1985L28.5089 26.192Z" fill="#053D27"/>
</g>
<path d="M67.8413 36.3047C64.2327 36.3047 61.8132 34.0903 61.8132 30.7687V21.9931H64.5607V30.7687C64.5607 32.6141 65.873 33.8443 67.8413 33.8443C69.7892 33.8443 71.0809 32.6141 71.0809 30.7687V21.9931H73.8284V30.7687C73.8284 34.0903 71.4295 36.3047 67.8413 36.3047ZM75.8037 36.0587V25.8068H78.2641V26.5655C78.9407 25.9299 80.0479 25.5198 81.0526 25.5198C83.8616 25.5198 85.7274 27.1806 85.7274 29.682V36.0587H83.267V29.9691C83.267 28.5953 82.2623 27.6932 80.7655 27.6932C79.2688 27.6932 78.2641 28.5953 78.2641 29.9691V36.0587H75.8037ZM87.6173 24.2486V21.9931H90.0778V24.2486H87.6173ZM87.6173 36.0587V25.8068H90.0778V36.0587H87.6173ZM98.8926 25.8068H101.107V36.0587H98.6465V27.8572H95.694V36.0587H93.2336V27.8572H91.5933V25.8068H93.2336V24.6791C93.2336 22.8953 94.4433 21.7061 96.2476 21.7061C96.8012 21.7061 97.3753 21.8291 97.7034 21.9931V23.7565H96.5962C95.9811 23.7565 95.694 24.0435 95.694 24.6586V25.8068H98.8926ZM98.6465 21.9931H101.107V24.2486H98.6465V21.9931ZM108.142 36.3457C104.799 36.3457 102.585 34.1723 102.585 30.9328C102.585 27.6932 104.799 25.5198 108.142 25.5198C111.484 25.5198 113.698 27.6932 113.698 30.9328V31.4043L113.493 31.6094H105.086C105.312 33.2292 106.542 34.2954 108.142 34.2954C109.351 34.2954 110.479 33.5982 110.951 32.5731H113.452C112.775 34.8285 110.643 36.3457 108.142 36.3457ZM105.25 29.559H111.033C110.561 28.2878 109.515 27.5702 108.142 27.5702C106.768 27.5702 105.722 28.2878 105.25 29.559ZM120.172 36.3457C116.932 36.3457 114.759 34.1723 114.759 30.9328C114.759 27.6932 116.932 25.5198 120.172 25.5198C121.423 25.5198 122.797 26.0939 123.576 26.9345V21.9931H126.036V36.0587H123.576V34.931C122.797 35.7716 121.423 36.3457 120.172 36.3457ZM120.418 34.1723C122.304 34.1723 123.576 32.8806 123.576 30.9328C123.576 28.9849 122.304 27.6932 120.418 27.6932C118.491 27.6932 117.22 28.9849 117.22 30.9328C117.22 32.8806 118.491 34.1723 120.418 34.1723ZM128.17 36.0587V21.9931H134.711C137.479 21.9931 139.324 23.5104 139.324 25.7863C139.324 26.75 138.791 27.8367 137.971 28.5338C139.447 29.1694 140.431 30.6047 140.431 32.1015C140.431 34.4799 138.504 36.0587 135.633 36.0587H128.17ZM130.917 27.6112H134.711C135.838 27.6112 136.576 26.9755 136.576 26.0324C136.576 25.0892 135.838 24.4536 134.711 24.4536H130.917V27.6112ZM130.917 33.5982H135.633C136.864 33.5982 137.684 32.9011 137.684 31.8554C137.684 30.7892 136.864 30.0716 135.654 30.0716H130.917V33.5982ZM146.846 36.3457C143.504 36.3457 141.29 34.1723 141.29 30.9328C141.29 27.6932 143.504 25.5198 146.846 25.5198C150.188 25.5198 152.403 27.6932 152.403 30.9328V31.4043L152.198 31.6094H143.791C144.017 33.2292 145.247 34.2954 146.846 34.2954C148.056 34.2954 149.184 33.5982 149.655 32.5731H152.157C151.48 34.8285 149.348 36.3457 146.846 36.3457ZM143.955 29.559H149.737C149.266 28.2878 148.22 27.5702 146.846 27.5702C145.473 27.5702 144.427 28.2878 143.955 29.559ZM159.02 36.3457C155.678 36.3457 153.464 34.1723 153.464 30.9328C153.464 27.6932 155.678 25.5198 159.02 25.5198C162.362 25.5198 164.577 27.6932 164.577 30.9328V31.4043L164.372 31.6094H155.965C156.191 33.2292 157.421 34.2954 159.02 34.2954C160.23 34.2954 161.358 33.5982 161.829 32.5731H164.331C163.654 34.8285 161.522 36.3457 159.02 36.3457ZM156.129 29.559H161.911C161.44 28.2878 160.394 27.5702 159.02 27.5702C157.647 27.5702 156.601 28.2878 156.129 29.559ZM165.679 36.0587V34.4184L171.133 27.9802H165.679V25.8068H174.496V27.4471L169.042 33.8853H174.496V36.0587H165.679Z" fill="white"/>
<defs>
<filter id="filter0_ddd_3077_43196" x="-0.000208974" y="9.05991e-06" width="56.0659" height="56.0712" filterUnits="userSpaceOnUse" color-interpolation-filters="sRGB">
<feFlood flood-opacity="0" result="BackgroundImageFix"/>
<feColorMatrix in="SourceAlpha" type="matrix" values="0 0 0 0 0 0 0 0 0 0 0 0 0 0 0 0 0 0 127 0" result="hardAlpha"/>
<feOffset dx="0.720705" dy="2.16212"/>
<feGaussianBlur stdDeviation="2.48643"/>
<feComposite in2="hardAlpha" operator="out"/>
<feColorMatrix type="matrix" values="0 0 0 0 0 0 0 0 0 0 0 0 0 0 0 0 0 0 0.05 0"/>
<feBlend mode="normal" in2="BackgroundImageFix" result="effect1_dropShadow_3077_43196"/>
<feColorMatrix in="SourceAlpha" type="matrix" values="0 0 0 0 0 0 0 0 0 0 0 0 0 0 0 0 0 0 127 0" result="hardAlpha"/>
<feOffset dx="0.709541" dy="1.41908"/>
<feComposite in2="hardAlpha" operator="out"/>
<feColorMatrix type="matrix" values="0 0 0 0 1 0 0 0 0 1 0 0 0 0 1 0 0 0 0.25 0"/>
<feBlend mode="normal" in2="effect1_dropShadow_3077_43196" result="effect2_dropShadow_3077_43196"/>
<feColorMatrix in="SourceAlpha" type="matrix" values="0 0 0 0 0 0 0 0 0 0 0 0 0 0 0 0 0 0 127 0" result="hardAlpha"/>
<feOffset dx="2.83817" dy="3.54771"/>
<feComposite in2="hardAlpha" operator="out"/>
<feColorMatrix type="matrix" values="0 0 0 0 1 0 0 0 0 1 0 0 0 0 1 0 0 0 0.25 0"/>
<feBlend mode="normal" in2="effect2_dropShadow_3077_43196" result="effect3_dropShadow_3077_43196"/>
<feBlend mode="normal" in="SourceGraphic" in2="effect3_dropShadow_3077_43196" result="shape"/>
</filter>
</defs>
</svg>
