<svg width="124" height="124" viewBox="0 0 124 124" fill="none" xmlns="http://www.w3.org/2000/svg">
<g filter="url(#filter0_ddd_751_5296)">
<rect x="9.40186" y="6.21467" width="101.974" height="101.985" rx="12.748" fill="white"/>
<rect x="10.1986" y="7.01142" width="100.38" height="100.392" rx="11.9513" stroke="#ECECEC" stroke-width="1.5935"/>
<path d="M91.8042 44.7504C93.5559 44.6787 96.3898 44.5447 98.0361 45.1523C98.325 45.2575 98.4947 45.3724 98.6276 45.6594C98.5497 47.7644 94.1979 52.8498 92.703 54.2898C88.0211 58.8107 82.4862 61.0736 76.1076 60.8248C73.746 60.7865 71.1735 60.1885 69.0137 59.1982C69.431 59.203 69.8528 59.2078 70.2701 59.1839C72.3382 59.0595 74.466 58.2892 76.3461 57.4281C81.0509 55.2705 84.9854 52.003 88.4063 48.0227C89.1767 47.1281 89.8462 46.1474 90.6074 45.2432C91.0063 44.7696 91.2402 44.7887 91.8134 44.7504H91.8042Z" fill="#FAB403"/>
<path d="M33.7824 22.7726C34.0667 22.7535 34.3648 22.7631 34.6445 22.8109C34.7316 22.8252 34.8142 22.8492 34.9013 22.8731C34.9838 22.897 35.0664 22.9257 35.1489 22.9592C35.2314 22.9927 35.3094 23.031 35.3874 23.0692C35.4653 23.1123 35.5433 23.1553 35.6166 23.2032C35.69 23.251 35.7634 23.3036 35.8322 23.3611C35.9009 23.4185 35.9651 23.4759 36.0293 23.5381C36.0935 23.6003 36.1532 23.6672 36.2082 23.7342C36.2632 23.8012 36.3182 23.8729 36.3687 23.9495C36.8043 24.5953 37.0015 25.4612 36.8548 26.241C36.6805 27.15 36.2082 27.5758 35.5112 28.0638C35.5845 31.2547 35.3094 34.3117 34.6261 37.4213C36.4741 37.4213 38.0791 37.8136 39.8079 38.4547C40.7204 36.8233 41.7843 35.2063 42.9674 33.7759C43.6415 32.9626 44.4165 32.2115 45.0493 31.3695C45.6041 30.628 45.7646 29.6377 46.5534 29.0875C47.2871 28.5804 48.328 28.3077 49.1947 28.5278C49.7725 28.6713 50.2998 29.0301 50.607 29.5707C50.9143 30.1113 50.9372 30.738 50.7767 31.3313C50.5704 32.1063 50.0889 32.8095 49.4102 33.197C48.5389 33.6946 47.5209 33.6228 46.6038 33.3214L46.4754 33.2784C44.5173 35.1537 42.8711 37.1152 41.3899 39.4163C43.215 40.8132 44.8292 42.4876 45.6637 44.7266C46.4525 46.8459 46.2553 48.8935 45.4024 50.9458C43.4305 54.7635 39.4044 57.854 35.5295 59.2844C32.558 60.3799 28.94 60.5187 26.0602 59.05C24.3819 58.1936 23.1713 56.8302 22.5751 54.974C21.6076 51.9839 22.4192 48.4342 23.7261 45.6929C25.5512 41.8561 28.4401 39.3254 32.3012 37.9571C33.5073 34.9289 33.8237 31.3695 34.0988 28.1307C33.2275 27.7576 32.5443 27.2266 32.1866 26.2793C31.9252 25.5856 31.9023 24.7676 32.2187 24.0882C32.5534 23.3706 33.1037 23.031 33.7961 22.7631L33.7824 22.7726Z" fill="#FAB403"/>
<path d="M95.7478 18.998C96.0321 18.9645 96.3623 18.9215 96.6329 19.0458C96.853 19.1511 96.9172 19.2946 96.963 19.529C97.1602 20.5145 96.7934 21.9785 96.6329 22.9783C95.5461 29.8051 93.0469 36.6559 89.2683 42.3585C84.646 49.3288 77.7401 55.2132 69.5777 56.7249C65.6249 57.4569 65.3497 55.9308 62.4149 53.7827C63.5246 52.6154 77.1119 36.742 77.2403 36.4215C77.2678 36.3545 77.2494 36.2732 77.2494 36.1966C75.6445 37.4692 74.1266 38.9905 72.5813 40.3587C68.1378 44.2816 63.7127 48.3146 59.1179 52.0366C58.1457 51.606 57.169 51.2711 56.1372 51.0271C56.8526 49.5154 57.6367 48.0467 58.485 46.6115C59.3334 45.1763 60.2459 43.7889 61.2181 42.4446C69.0457 31.513 82.5275 20.9786 95.7478 18.998Z" fill="#FAB403"/>
<path d="M31.7739 45.4871C32.1178 45.7407 32.3746 46.0947 32.526 46.5253C32.7552 47.1807 32.7277 47.9318 32.5581 48.6302V48.635V48.6398V48.6446V48.6494V48.6542V48.659V48.6637L32.5535 48.702V48.7068V48.7116V48.7164V48.7211V48.7259V48.7307V48.7355V48.7403V48.7451V48.7546V48.7594V48.7642V48.769V48.7738V48.7786V48.7833V48.7881V48.7929V48.7977V48.8025V48.8073L32.5397 48.8742V48.879V48.8838C32.1408 50.697 30.7422 51.9025 29.4398 51.582L29.3894 51.5676H29.3802L29.3298 51.5533H29.3252H29.3206L29.2748 51.5389H29.2702H29.2656L29.2197 51.5198H29.2151H29.2106C29.1968 51.515 29.183 51.5102 29.1693 51.5007H29.1647L29.1555 51.4959L29.128 51.4815L29.1188 51.4767L29.1005 51.4672L29.0913 51.4624L29.0822 51.4576L29.073 51.4528L29.0638 51.448L29.0455 51.4385L29.0363 51.4337L29.0271 51.4289L29.018 51.4241L29.0088 51.4193L28.9904 51.4098L28.9813 51.405L28.9629 51.3954L28.9538 51.3906L28.9308 51.3763L28.9217 51.3715L28.9125 51.3667L28.9033 51.3619L28.8758 51.3476L28.8666 51.3428C28.3943 51.0892 28.0504 50.673 27.8716 50.142C27.7248 49.721 27.6881 49.2617 27.7202 48.8025V48.7881V48.7738V48.7403V48.7259V48.7116V48.6972V48.6494V48.635V48.6207V48.6159V48.6111V48.5872V48.5728V48.5394V48.525V48.5202V48.5059L27.7248 48.4628V48.4485V48.4389V48.4293L27.7294 48.3815V48.3671V48.3576V48.3528L27.734 48.2906V48.281V48.2762L27.7432 48.2093V48.1997V48.1949V48.1901L27.7523 48.1279V48.1136V48.1088L27.7569 48.0944L27.7661 48.0322V48.0275V48.0227L27.7798 47.9413L27.7982 47.86L27.8165 47.7787C28.2109 45.9655 29.6141 44.76 30.9164 45.0805L30.9669 45.0948C30.9852 45.0996 31.0035 45.1044 31.0173 45.1092C31.0356 45.114 31.0494 45.1188 31.0677 45.1283L31.1182 45.1475L31.1686 45.1666L31.1778 45.1714L31.2191 45.1905L31.2328 45.1953L31.2741 45.2144H31.2787L31.2878 45.2192L31.3337 45.2432H31.3383L31.3429 45.2479L31.375 45.2671L31.3887 45.2766L31.3979 45.2814L31.43 45.3053L31.4529 45.3197L31.485 45.3436L31.5034 45.358H31.508L31.5217 45.3675L31.5355 45.3771L31.5584 45.3962L31.5722 45.4058L31.5859 45.4154L31.6088 45.4345L31.6226 45.4441L31.6455 45.4632L31.6593 45.4728L31.673 45.4824L31.7097 45.5158L31.7235 45.5254L31.7602 45.5589L31.7739 45.4871Z" fill="white"/>
<path fill-rule="evenodd" clip-rule="evenodd" d="M49.0065 88.0221C49.0065 88.0221 52.4228 90.4524 55.3392 90.505C58.2557 90.5576 70.5956 83.0036 70.5956 83.0036L71.554 72.1295C71.554 72.1295 69.0732 64.5564 68.1652 63.5852C67.2619 62.614 67.0142 63.9344 65.822 65.207L65.1983 59.691C65.1983 59.691 59.4617 54.4668 56.5957 54.5338C53.7297 54.6008 42.018 67.3311 42.018 67.3311L38.1294 74.5885C38.1294 74.5885 38.8906 79.2242 42.0226 82.396C44.453 84.8598 51.5699 81.4249 54.6422 79.7648C51.9046 83.6255 49.8457 86.6538 49.8457 86.6538L49.0019 88.0173L49.0065 88.0221Z" fill="#FAB403"/>
<path d="M50.8912 53.5053C53.3307 53.3904 55.6602 53.9789 57.9576 54.7587C57.8705 55.1079 57.7742 55.4572 57.6641 55.8016C55.1925 63.7622 49.9099 69.7614 42.8205 73.5265C41.376 74.2728 39.8857 74.8516 38.3724 75.4209C37.3315 71.9477 37.0242 68.819 37.7442 65.2405C43.4762 63.0686 47.7546 58.873 50.8912 53.5053ZM71.0863 70.6034C71.4485 70.9526 71.5219 71.9764 71.6182 72.4931C72.3106 76.1433 72.1685 79.5161 71.6916 83.1711C71.4439 85.056 71.1367 86.9505 71.1734 88.8593C71.2147 91.1365 71.7603 93.3324 72.5261 95.4517C68.6284 92.6435 65.18 92.0168 60.6219 91.4953C58.5538 91.3422 56.5407 90.7155 54.4771 90.4954C57.8292 89.3855 60.6219 87.7733 63.309 85.3861C67.6929 81.4871 70.6323 76.6887 71.0863 70.6034ZM63.0339 57.9114C64.914 59.1791 67.7296 61.9634 68.422 64.2454C69.0869 66.4365 66.8537 72.2874 65.8082 74.3015C62.4974 80.6977 55.9904 86.0846 49.3504 88.1704C48.7818 87.9408 48.2453 87.6633 47.6996 87.3762C47.4061 87.1992 47.1126 87.0127 46.8283 86.8213C46.5394 86.6299 46.2597 86.429 45.98 86.2233C45.7048 86.0176 45.4297 85.8023 45.1637 85.5822C44.8978 85.3622 44.6318 85.1325 44.375 84.9029C44.1182 84.6685 43.866 84.4293 43.6184 84.1853C43.3708 83.9413 43.1323 83.6878 42.8984 83.4294C42.6646 83.1711 42.4353 82.908 42.2106 82.6401C41.9859 82.3721 41.7704 82.0947 41.5594 81.8172C45.5443 81.1044 49.4742 79.1668 52.6704 76.6122C58.4437 71.9956 62.0847 65.4462 63.0293 57.9257L63.0339 57.9114Z" fill="#053D27"/>
</g>
<defs>
<filter id="filter0_ddd_751_5296" x="0.000178814" y="4.76837e-07" width="123.964" height="123.975" filterUnits="userSpaceOnUse" color-interpolation-filters="sRGB">
<feFlood flood-opacity="0" result="BackgroundImageFix"/>
<feColorMatrix in="SourceAlpha" type="matrix" values="0 0 0 0 0 0 0 0 0 0 0 0 0 0 0 0 0 0 127 0" result="hardAlpha"/>
<feOffset dx="1.5935" dy="4.78051"/>
<feGaussianBlur stdDeviation="5.49759"/>
<feComposite in2="hardAlpha" operator="out"/>
<feColorMatrix type="matrix" values="0 0 0 0 0 0 0 0 0 0 0 0 0 0 0 0 0 0 0.05 0"/>
<feBlend mode="normal" in2="BackgroundImageFix" result="effect1_dropShadow_751_5296"/>
<feColorMatrix in="SourceAlpha" type="matrix" values="0 0 0 0 0 0 0 0 0 0 0 0 0 0 0 0 0 0 127 0" result="hardAlpha"/>
<feOffset dx="1.56882" dy="3.13764"/>
<feComposite in2="hardAlpha" operator="out"/>
<feColorMatrix type="matrix" values="0 0 0 0 1 0 0 0 0 1 0 0 0 0 1 0 0 0 0.25 0"/>
<feBlend mode="normal" in2="effect1_dropShadow_751_5296" result="effect2_dropShadow_751_5296"/>
<feColorMatrix in="SourceAlpha" type="matrix" values="0 0 0 0 0 0 0 0 0 0 0 0 0 0 0 0 0 0 127 0" result="hardAlpha"/>
<feOffset dx="6.27528" dy="7.8441"/>
<feComposite in2="hardAlpha" operator="out"/>
<feColorMatrix type="matrix" values="0 0 0 0 1 0 0 0 0 1 0 0 0 0 1 0 0 0 0.25 0"/>
<feBlend mode="normal" in2="effect2_dropShadow_751_5296" result="effect3_dropShadow_751_5296"/>
<feBlend mode="normal" in="SourceGraphic" in2="effect3_dropShadow_751_5296" result="shape"/>
</filter>
</defs>
</svg>
