<svg width="89" height="89" viewBox="0 0 89 89" fill="none" xmlns="http://www.w3.org/2000/svg">
<g clip-path="url(#clip0_8671_10243)">
<path d="M60.4153 55.6036C57.9632 58.1305 54.9003 61.2758 48.9535 61.7204L45.3975 61.9862C41.0942 62.3078 37.0632 61.036 34.0498 58.4103C31.1059 55.8447 29.3161 52.1658 29.0084 48.0499L28.6447 43.1844C28.3371 39.0685 29.5601 35.1644 32.0899 32.1893C34.6794 29.1448 38.4767 27.2905 42.78 26.9688L46.336 26.703C52.2901 26.2579 55.7791 28.911 58.5796 31.0455C61.4862 33.2443 63.9954 35.1684 70.2689 34.6995C71.2256 34.6277 72.1752 34.4798 73.1087 34.2577L73.0828 34.204C72.6375 33.2989 72.1291 32.4261 71.5612 31.5923L66.8256 24.6423C62.4846 18.2736 55.0517 14.6929 47.3658 15.2677L38.9779 15.8947C31.2922 16.4689 24.4741 21.1148 21.1282 28.0581L17.4784 35.6349C14.134 42.5789 14.749 50.8058 19.0885 57.1752L23.8242 64.1254C28.1651 70.4941 35.5982 74.0748 43.2838 73.5001L51.6717 72.8731C59.3576 72.2989 66.1756 67.6529 69.5215 60.7096L73.1722 53.1448C73.6098 52.2356 73.9828 51.2972 74.2887 50.336L74.3064 50.2813C73.3504 50.195 72.3891 50.1863 71.4317 50.2548C65.1582 50.7237 62.9618 52.985 60.4153 55.6036Z" fill="#006BFF"/>
<path d="M46.6638 31.1129L43.1078 31.3787C36.5579 31.8683 32.6043 36.8681 33.0519 42.8557L33.4156 47.7212C33.8631 53.7088 38.5161 58.0653 45.066 57.5757L48.622 57.3099C58.1656 56.5965 56.6884 46.9215 71.1001 45.8443C72.4653 45.7407 73.8374 45.7642 75.1983 45.9148C75.4506 43.4066 75.2612 40.8732 74.6388 38.4303C73.3151 38.7803 71.962 39.0076 70.5967 39.1094C56.1803 40.187 56.2074 30.3995 46.6638 31.1129Z" fill="#006BFF"/>
<path d="M83.7443 48.8515C81.1558 47.2377 78.2344 46.2326 75.201 45.9119L75.2064 45.984C75.0559 47.4379 74.7582 48.8726 74.3183 50.2665C76.8191 50.4645 79.2374 51.2557 81.3719 52.5736C81.3734 52.5927 81.363 52.6176 81.3577 52.6399C77.7477 68.417 64.1859 80.0794 48.0462 81.2858C27.8042 82.7988 9.90246 67.3872 8.38941 47.1453C6.87636 26.9033 22.288 9.00158 42.53 7.48853C58.6697 6.28211 73.8146 15.7987 79.7299 30.8638C79.7316 30.8855 79.7453 30.9087 79.7539 30.9273C77.8393 32.5481 75.5654 33.6889 73.1215 34.2547C73.7633 35.5696 74.2708 36.9459 74.6367 38.3625C74.6368 38.3851 74.6385 38.4076 74.6417 38.43C77.5936 37.663 80.3334 36.2354 82.6532 34.2552C84.8821 32.332 84.2782 30.3934 83.8329 29.2525C77.2081 12.357 60.2272 1.68132 42.13 3.03405C19.4416 4.72997 2.16749 24.7951 3.86341 47.4836C5.55934 70.1721 25.6245 87.4461 48.3129 85.7502C66.4101 84.3975 81.6152 71.316 85.6546 53.6233C85.9253 52.4289 86.2343 50.422 83.7443 48.8515Z" fill="#006BFF"/>
<path d="M73.1085 34.2561C72.1759 34.4835 71.2266 34.6353 70.2694 34.71C63.9959 35.1789 61.4875 33.2667 58.5823 31.0556C55.7796 28.9215 52.2903 26.266 46.3363 26.7111L42.7803 26.9769C38.4747 27.2987 34.6799 29.1553 32.0903 32.1999C29.5608 35.1749 28.3377 39.079 28.6453 43.1947L29.009 48.0602C29.3166 52.1761 31.1066 55.855 34.0503 58.4209C37.0637 61.0466 41.0921 62.316 45.3978 61.9941L48.9538 61.7283C54.9078 61.2833 57.9637 58.141 60.418 55.6137C62.9631 53.0074 65.1584 50.7317 71.4319 50.2627C72.3889 50.1914 73.3499 50.1966 74.306 50.2774C74.7472 48.8839 75.0444 47.449 75.1938 45.9949C75.1936 45.9708 75.1918 45.9467 75.1884 45.9228C73.8275 45.7742 72.4557 45.7515 71.0905 45.8546C56.6741 46.9322 58.1561 56.6091 48.6125 57.3225L45.0565 57.5883C38.5067 58.0779 33.8535 53.7191 33.4059 47.7315L33.0415 42.8564C32.594 36.8688 36.5476 31.869 43.0974 31.3794L46.6534 31.1136C56.1971 30.4003 56.1747 40.185 70.5861 39.1078C71.9519 39.008 73.3051 38.7816 74.6285 38.4311L74.6234 38.3639C74.2579 36.947 73.7503 35.5709 73.1085 34.2561Z" fill="#0AE8F0"/>
<path d="M73.1085 34.2561C72.1759 34.4835 71.2266 34.6353 70.2694 34.71C63.9959 35.1789 61.4875 33.2667 58.5823 31.0556C55.7796 28.9215 52.2903 26.266 46.3363 26.7111L42.7803 26.9769C38.4747 27.2987 34.6799 29.1553 32.0903 32.1999C29.5608 35.1749 28.3377 39.079 28.6453 43.1947L29.009 48.0602C29.3166 52.1761 31.1066 55.855 34.0503 58.4209C37.0637 61.0466 41.0921 62.316 45.3978 61.9941L48.9538 61.7283C54.9078 61.2833 57.9637 58.141 60.418 55.6137C62.9631 53.0074 65.1584 50.7317 71.4319 50.2627C72.3889 50.1914 73.3499 50.1966 74.306 50.2774C74.7472 48.8839 75.0444 47.449 75.1938 45.9949C75.1936 45.9708 75.1918 45.9467 75.1884 45.9228C73.8275 45.7742 72.4557 45.7515 71.0905 45.8546C56.6741 46.9322 58.1561 56.6091 48.6125 57.3225L45.0565 57.5883C38.5067 58.0779 33.8535 53.7191 33.4059 47.7315L33.0415 42.8564C32.594 36.8688 36.5476 31.869 43.0974 31.3794L46.6534 31.1136C56.1971 30.4003 56.1747 40.185 70.5861 39.1078C71.9519 39.008 73.3051 38.7816 74.6285 38.4311L74.6234 38.3639C74.2579 36.947 73.7503 35.5709 73.1085 34.2561Z" fill="#0AE8F0"/>
</g>
<defs>
<clipPath id="clip0_8671_10243">
<rect width="82.9469" height="82.9469" fill="white" transform="translate(0 6.18311) rotate(-4.27481)"/>
</clipPath>
</defs>
</svg>
