<svg width="90" height="91" viewBox="0 0 90 91" fill="none" xmlns="http://www.w3.org/2000/svg">
<g clip-path="url(#clip0_8671_10273)">
<path d="M37.637 6.79063C22.172 10.0087 17.6525 10.966 16.7893 11.223C13.6715 12.1514 11.8023 13.0701 9.87739 14.6062C8.39349 15.7879 7.2877 17.0297 6.28004 18.6577C4.4456 21.6259 3.65578 24.972 3.89463 28.7051C4.01007 30.5169 4.01188 30.891 5.86786 39.8846C6.48575 42.8826 7.31212 46.8253 8.41284 52.1151C11.6801 67.8166 12.6526 72.4047 12.9123 73.2811C13.8216 76.3658 14.7168 78.2393 16.1918 80.1854C19.012 83.9115 23.4011 86.2358 28.0519 86.4763C29.662 86.558 31.3943 86.4271 33.5811 86.0808C34.5069 85.9304 43.8629 84.0138 53.2182 82.0671C62.5735 80.1204 71.9272 78.1619 72.8117 77.9296C75.2938 77.288 76.7082 76.7865 78.2299 76.0289C80.298 75.004 82.1178 73.5319 83.5622 71.7154C85.0066 69.8989 86.0408 67.7818 86.5926 65.512C87.1597 63.1953 87.2432 61.0396 86.855 58.0174C86.7702 57.3585 84.6399 47.0154 82.4914 36.6905C80.3427 26.3641 78.1725 16.0492 77.9874 15.4109C77.129 12.437 76.1935 10.5116 74.7086 8.57971C73.4907 6.99831 72.2722 5.88188 70.6193 4.82513C67.6737 2.95665 64.3758 2.13274 60.6953 2.35258C58.9125 2.45837 58.5516 2.45494 49.6946 4.28165L37.637 6.79063Z" fill="url(#paint0_radial_8671_10273)"/>
<path d="M37.637 6.79063C22.172 10.0087 17.6525 10.966 16.7893 11.223C13.6715 12.1514 11.8023 13.0701 9.87739 14.6062C8.39349 15.7879 7.2877 17.0297 6.28004 18.6577C4.4456 21.6259 3.65578 24.972 3.89463 28.7051C4.01007 30.5169 4.01188 30.891 5.86786 39.8846C6.48575 42.8826 7.31212 46.8253 8.41284 52.1151C11.6801 67.8166 12.6526 72.4047 12.9123 73.2811C13.8216 76.3658 14.7168 78.2393 16.1918 80.1854C19.012 83.9115 23.4011 86.2358 28.0519 86.4763C29.662 86.558 31.3943 86.4271 33.5811 86.0808C34.5069 85.9304 43.8629 84.0138 53.2182 82.0671C62.5735 80.1204 71.9272 78.1619 72.8117 77.9296C75.2938 77.288 76.7082 76.7865 78.2299 76.0289C80.298 75.004 82.1178 73.5319 83.5622 71.7154C85.0066 69.8989 86.0408 67.7818 86.5926 65.512C87.1597 63.1953 87.2432 61.0396 86.855 58.0174C86.7702 57.3585 84.6399 47.0154 82.4914 36.6905C80.3427 26.3641 78.1725 16.0492 77.9874 15.4109C77.129 12.437 76.1935 10.5116 74.7086 8.57971C73.4907 6.99831 72.2722 5.88188 70.6193 4.82513C67.6737 2.95665 64.3758 2.13274 60.6953 2.35258C58.9125 2.45837 58.5516 2.45494 49.6946 4.28165L37.637 6.79063Z" fill="url(#paint1_radial_8671_10273)"/>
<path d="M47.8972 56.1518C54.3973 54.7992 58.5527 48.3498 57.1787 41.7466C55.8047 35.1434 49.4215 30.8869 42.9214 32.2395C36.4214 33.592 32.266 40.0414 33.64 46.6446C35.014 53.2478 41.3972 57.5043 47.8972 56.1518Z" stroke="white" stroke-width="6.19048"/>
<path d="M51.4998 16.6051L28.8169 21.3251C21.1782 22.9146 16.2948 30.4938 17.9096 38.2537L22.6564 61.0656C24.2711 68.8255 31.7725 73.8276 39.4112 72.2381L62.0941 67.5181C69.7328 65.9286 74.6162 58.3494 73.0014 50.5895L68.2546 27.7777C66.6399 20.0177 59.1385 15.0156 51.4998 16.6051Z" stroke="white" stroke-width="6.19048"/>
<path d="M58.038 29.7874C59.8847 29.4031 61.0653 27.5707 60.6749 25.6947C60.2845 23.8187 58.471 22.6094 56.6243 22.9937C54.7776 23.3779 53.597 25.2103 53.9874 27.0863C54.3777 28.9623 56.1912 30.1716 58.038 29.7874Z" fill="white"/>
</g>
<defs>
<radialGradient id="paint0_radial_8671_10273" cx="0" cy="0" r="1" gradientUnits="userSpaceOnUse" gradientTransform="translate(37.1255 91.4638) rotate(-101.755) scale(76.1844 69.7508)">
<stop stop-color="#FFDD55"/>
<stop offset="0.1" stop-color="#FFDD55"/>
<stop offset="0.5" stop-color="#FF543E"/>
<stop offset="1" stop-color="#C837AB"/>
</radialGradient>
<radialGradient id="paint1_radial_8671_10273" cx="0" cy="0" r="1" gradientTransform="matrix(13.2445 31.3521 -127.035 54.5924 -10.7046 22.4985)" gradientUnits="userSpaceOnUse">
<stop stop-color="#3771C8"/>
<stop offset="0.128" stop-color="#3771C8"/>
<stop offset="1" stop-color="#6600FF" stop-opacity="0"/>
</radialGradient>
<clipPath id="clip0_8671_10273">
<rect width="75.6709" height="76.872" fill="white" transform="translate(0 15.416) rotate(-11.7547)"/>
</clipPath>
</defs>
</svg>
