<svg width="82" height="82" viewBox="0 0 82 82" fill="none" xmlns="http://www.w3.org/2000/svg">
<g clip-path="url(#clip0_8671_10290)">
<path d="M68.2606 21.0541C68.3986 19.9328 68.4707 18.7912 68.4707 17.6326C68.4707 7.89451 60.5763 0 50.8381 0H21.3702C19.5166 0 17.9341 1.33856 17.6266 3.1664L6.76842 67.7032C6.37879 70.019 8.16396 72.1294 10.5121 72.1294H21.2892C23.1428 72.1294 24.7552 70.7918 25.0625 68.9638C25.0625 68.9638 25.0805 68.8567 25.113 68.6638H25.1131L23.6113 77.5906C23.2681 79.6316 24.8414 81.4917 26.911 81.4917H36.3394C37.9732 81.4917 39.3681 80.3118 39.639 78.7008L42.3176 62.7812C42.7793 60.0369 45.1552 58.0275 47.9378 58.0275H50.4147C63.8688 58.0275 74.7753 47.1208 74.7753 33.6669C74.7753 28.4608 72.202 23.8589 68.2606 21.0541Z" fill="#002987"/>
<path d="M68.2625 21.0537C66.5764 34.7703 54.8858 45.3914 40.7136 45.3914H32.4904C30.6344 45.3914 29.0314 46.6276 28.5286 48.3756L23.6134 77.5899C23.27 79.631 24.8434 81.4913 26.913 81.4913H36.3413C37.9752 81.4913 39.3701 80.3114 39.641 78.7003L42.3195 62.7808C42.7813 60.0365 45.1571 58.0271 47.9397 58.0271H50.4166C63.8707 58.0271 74.7773 47.1204 74.7773 33.6665C74.7773 28.4604 72.2039 23.8585 68.2625 21.0537Z" fill="#0085CC"/>
<path d="M32.49 45.3914H40.7132C54.8855 45.3914 66.5761 34.7702 68.2621 21.0538C65.7333 19.2543 62.643 18.1924 59.3028 18.1924H37.8396C35.396 18.1924 33.3095 19.957 32.904 22.3668L28.5281 48.3753C29.0309 46.6274 30.634 45.3914 32.49 45.3914Z" fill="#00186A"/>
</g>
<defs>
<clipPath id="clip0_8671_10290">
<rect width="81.4917" height="81.4917" fill="white"/>
</clipPath>
</defs>
</svg>
