<svg width="82" height="92" viewBox="0 0 82 92" fill="none" xmlns="http://www.w3.org/2000/svg">
<path d="M71.1365 20.9118C71.1022 20.4699 70.7334 20.205 70.4183 20.1598C70.104 20.1146 63.4456 19.2251 63.4456 19.2251C63.4456 19.2251 59.0727 14.3322 58.5932 13.791C58.113 13.2498 57.1079 13.3467 56.7147 13.4381C56.6564 13.4516 55.6814 13.6915 54.068 14.0893C52.7793 9.52524 50.2831 5.25351 45.466 4.9704C45.3332 4.96259 45.1958 4.96015 45.0584 4.9598C43.7952 3.06408 42.1445 2.17579 40.6788 2.08965C29.4579 1.43018 23.271 15.1697 21.1703 22.2134C16.7307 23.3108 13.5764 24.091 13.1735 24.1924C10.6948 24.8141 10.6134 24.8866 10.159 27.1656C9.8156 28.891 0.547492 77.8607 0.547492 77.8607L49.6215 90.0926L76.851 85.8447C76.851 85.8447 71.1701 21.3537 71.1365 20.9118ZM51.2754 14.7783C50.0065 15.0916 48.5639 15.4475 47.0003 15.8334C47.0191 15.5373 47.0377 15.2453 47.0564 14.9267C47.2198 12.1465 46.9663 9.88563 46.4527 8.07473C48.9163 8.53294 50.403 11.4593 51.2754 14.7783ZM43.3415 8.44492C43.9295 10.218 44.2321 12.7305 44.0349 16.0857C44.0248 16.2573 44.0142 16.4141 44.0035 16.573C41.2229 17.2598 38.2018 18.0057 35.1735 18.7539C37.2228 12.3952 40.5359 9.46063 43.3415 8.44492ZM40.1933 5.08707C40.6777 5.11554 41.1559 5.30879 41.6038 5.65837C37.9081 7.14248 33.8025 11.1864 31.6734 19.6185C29.2508 20.2168 26.8831 20.8014 24.6939 21.3425C26.9829 14.95 32.1338 4.6134 40.1933 5.08707Z" fill="#95BF46"/>
<path d="M70.419 20.1596C70.1047 20.1144 63.4464 19.2248 63.4464 19.2248C63.4464 19.2248 59.0734 14.3319 58.5939 13.7907C58.4143 13.589 58.1628 13.4766 57.8962 13.4187L49.6251 90.0918L76.8517 85.8445C76.8517 85.8445 71.1709 21.3534 71.1372 20.9115C71.1029 20.4696 70.7341 20.2048 70.419 20.1596Z" fill="#5E8E3E"/>
<path d="M43.7884 33.5311L39.8926 43.217C39.8926 43.217 37.0791 41.493 33.5187 41.2837C28.2989 40.977 27.8432 44.2439 27.7946 45.071C27.5294 49.5838 39.1686 52.0029 38.5474 62.5734C38.0586 70.8896 32.4795 75.9355 25.381 75.5183C16.8629 75.0176 12.8193 69.4498 12.8193 69.4498L15.5437 62.0338C15.5437 62.0338 19.7948 66.1486 23.5733 66.3707C26.0419 66.5158 27.1608 64.6272 27.2444 63.2042C27.5904 57.3174 17.9737 56.4887 18.5422 46.816C19.0206 38.6748 25.3156 31.1391 37.088 31.831C41.6241 32.0976 43.7884 33.5311 43.7884 33.5311Z" fill="white"/>
</svg>
