<svg width="84" height="83" viewBox="0 0 84 83" fill="none" xmlns="http://www.w3.org/2000/svg">
<g clip-path="url(#clip0_8671_10280)">
<path fill-rule="evenodd" clip-rule="evenodd" d="M23.1748 51.9386C23.1748 47.1348 26.8499 43.2676 31.415 43.2676C35.9801 43.2676 39.6552 47.1348 39.6552 51.9386V73.2824C39.6552 78.086 35.9801 81.9534 31.415 81.9534C26.8499 81.9534 23.1748 78.086 23.1748 73.2824V51.9386Z" fill="#E01E5A" stroke="#E01E5A" stroke-width="1.16383" stroke-linecap="round" stroke-linejoin="round"/>
<path fill-rule="evenodd" clip-rule="evenodd" d="M52.549 59.5563C47.6889 59.5563 43.7761 55.9239 43.7761 51.412C43.7761 46.9 47.6889 43.2676 52.549 43.2676H74.1441C79.0043 43.2676 82.917 46.9 82.917 51.412C82.917 55.9239 79.0043 59.5563 74.1441 59.5563H52.549Z" fill="#ECB22D" stroke="#ECB22D" stroke-width="1.16383" stroke-linecap="round" stroke-linejoin="round"/>
<path fill-rule="evenodd" clip-rule="evenodd" d="M43.7761 9.1797C43.7761 4.37605 47.4513 0.508789 52.0163 0.508789C56.5814 0.508789 60.2565 4.37605 60.2565 9.1797V30.5236C60.2565 35.3273 56.5814 39.1946 52.0163 39.1946C47.4513 39.1946 43.7761 35.3273 43.7761 30.5236V9.1797Z" fill="#2FB67C" stroke="#2FB67C" stroke-width="1.16383" stroke-linecap="round" stroke-linejoin="round"/>
<path fill-rule="evenodd" clip-rule="evenodd" d="M9.28708 39.195C4.42691 39.195 0.51416 35.5626 0.51416 31.0506C0.51416 26.5386 4.42691 22.9062 9.28708 22.9062H30.8821C35.7423 22.9062 39.6551 26.5386 39.6551 31.0506C39.6551 35.5626 35.7423 39.195 30.8821 39.195H9.28708Z" fill="#36C5F1" stroke="#36C5F1" stroke-width="1.16383" stroke-linecap="round" stroke-linejoin="round"/>
<path fill-rule="evenodd" clip-rule="evenodd" d="M43.7761 73.8075C43.7738 74.8777 43.9854 75.9377 44.3987 76.9269C44.812 77.916 45.4189 78.8148 46.1845 79.5715C46.9501 80.3282 47.8594 80.9281 48.8602 81.3366C49.861 81.745 50.9336 81.9541 52.0163 81.9519C56.5814 81.9519 60.2565 78.3195 60.2565 73.8075C60.2588 72.7373 60.0473 71.6772 59.634 70.6881C59.2207 69.6989 58.6138 68.8002 57.8482 68.0435C57.0825 67.2867 56.1732 66.6869 55.1725 66.2784C54.1717 65.8699 53.0991 65.6608 52.0163 65.6631H43.7761V73.8075Z" fill="#ECB22D" stroke="#ECB22D" stroke-width="1.16383" stroke-linecap="round"/>
<path fill-rule="evenodd" clip-rule="evenodd" d="M74.6765 39.194H66.4363V31.0497C66.4363 26.5377 70.1114 22.9053 74.6765 22.9053C79.2415 22.9053 82.9167 26.5377 82.9167 31.0497C82.9167 35.5616 79.2415 39.194 74.6765 39.194Z" fill="#2FB67C" stroke="#2FB67C" stroke-width="1.16383" stroke-linecap="round"/>
<path fill-rule="evenodd" clip-rule="evenodd" d="M8.75437 43.2666H16.9946V51.411C16.9946 55.923 13.3194 59.5554 8.75437 59.5554C7.67161 59.5576 6.59905 59.3485 5.59826 58.94C4.59747 58.5316 3.68816 57.9317 2.92253 57.175C2.1569 56.4183 1.55002 55.5195 1.13672 54.5304C0.723434 53.5412 0.511871 52.4812 0.514179 51.411C0.514179 46.899 4.1893 43.2666 8.75437 43.2666Z" fill="#E01E5A" stroke="#E01E5A" stroke-width="1.16383" stroke-linecap="round"/>
<path fill-rule="evenodd" clip-rule="evenodd" d="M39.6552 8.65318V16.7976H31.415C30.3323 16.7998 29.2597 16.5907 28.2589 16.1823C27.2581 15.7738 26.3488 15.1739 25.5832 14.4172C24.8175 13.6605 24.2107 12.7618 23.7974 11.7726C23.3841 10.7834 23.1725 9.72336 23.1748 8.65318C23.1748 4.1412 26.8499 0.508808 31.415 0.508808C32.4978 0.506526 33.5703 0.715629 34.5711 1.12411C35.5719 1.5326 36.4812 2.13242 37.2469 2.88915C38.0125 3.64588 38.6194 4.54462 39.0327 5.53377C39.446 6.52292 39.6575 7.58301 39.6552 8.65318Z" fill="#36C5F1" stroke="#36C5F1" stroke-width="1.16383" stroke-linecap="round"/>
</g>
<defs>
<clipPath id="clip0_8671_10280">
<rect width="83.432" height="82.4618" fill="white"/>
</clipPath>
</defs>
</svg>
