<svg width="80" height="80" viewBox="0 0 80 80" fill="none" xmlns="http://www.w3.org/2000/svg">
<path d="M1.69879 39.6278C1.69678 46.3674 3.45783 52.9482 6.80625 58.7484L1.37842 78.5665L21.6596 73.2487C27.247 76.294 33.5384 77.9015 39.9411 77.9032H39.958C61.0423 77.9032 78.2055 60.746 78.2144 39.6581C78.2184 29.4391 74.2425 19.8303 67.019 12.6011C59.7966 5.37232 50.191 1.3892 39.9564 1.38477C18.8697 1.38477 1.70766 18.5407 1.69879 39.6278Z" fill="url(#paint0_linear_8671_10234)"/>
<path d="M0.332867 39.6148C0.330449 46.597 2.15477 53.4131 5.62248 59.4209L0 79.9494L21.0085 74.441C26.797 77.5972 33.3141 79.2611 39.9461 79.2635H39.963C61.8037 79.2635 79.5835 61.4894 79.5928 39.6467C79.5964 29.0606 75.4775 19.1064 67.996 11.6181C60.5134 4.13062 50.564 0.00443286 39.963 0C18.1183 0 0.341733 17.7713 0.332867 39.6148ZM12.8436 58.3864L12.0594 57.1412C8.76175 51.8979 7.02124 45.839 7.02366 39.6173C7.03092 21.4619 21.8064 6.6912 39.9755 6.6912C48.7739 6.69483 57.0432 10.1247 63.2625 16.348C69.4818 22.5717 72.904 30.845 72.9016 39.6443C72.8935 57.8001 58.1176 72.5728 39.963 72.5728H39.9501C34.0387 72.5695 28.2413 70.9822 23.1851 67.9823L21.9817 67.2686L9.51493 70.5373L12.8436 58.3864Z" fill="url(#paint1_linear_8671_10234)"/>
<path d="M30.0584 23.0534C29.3165 21.4044 28.5359 21.3714 27.8303 21.3423C27.2528 21.3178 26.5923 21.3194 25.9326 21.3194C25.2721 21.3194 24.1994 21.5676 23.2923 22.5582C22.3843 23.5491 19.8262 25.9445 19.8262 30.8162C19.8262 35.6883 23.3749 40.396 23.8693 41.0573C24.3646 41.7174 30.7197 52.0347 40.7843 56.0037C49.1491 59.3021 50.8514 58.6461 52.6668 58.4808C54.4823 58.316 58.5254 56.0863 59.3503 53.774C60.1757 51.462 60.1757 49.4801 59.9282 49.0663C59.6808 48.6536 59.0203 48.4058 58.0302 47.9109C57.0396 47.4156 52.1715 45.0199 51.264 44.6894C50.3561 44.3594 49.696 44.1945 49.0355 45.1859C48.3754 46.176 46.4789 48.4058 45.9011 49.0663C45.3236 49.728 44.7457 49.8106 43.7556 49.3153C42.765 48.8184 39.5758 47.7739 35.7925 44.4009C32.8487 41.7762 30.8616 38.535 30.2837 37.5436C29.7062 36.5535 30.222 36.0171 30.7185 35.5235C31.1634 35.0798 31.7091 34.3673 32.2043 33.7894C32.6984 33.2111 32.8632 32.7985 33.1933 32.138C33.5237 31.4771 33.3585 30.8988 33.111 30.4035C32.8632 29.9082 30.9389 25.0115 30.0584 23.0534Z" fill="white"/>
<defs>
<linearGradient id="paint0_linear_8671_10234" x1="3843.17" y1="7719.57" x2="3843.17" y2="1.38845" gradientUnits="userSpaceOnUse">
<stop stop-color="#1FAF38"/>
<stop offset="1" stop-color="#60D669"/>
</linearGradient>
<linearGradient id="paint1_linear_8671_10234" x1="3979.64" y1="7994.95" x2="3979.64" y2="-0.0104838" gradientUnits="userSpaceOnUse">
<stop stop-color="#F9F9F9"/>
<stop offset="1" stop-color="white"/>
</linearGradient>
</defs>
</svg>
